<svg width="966" height="686" viewBox="0 0 966 686" fill="none" xmlns="http://www.w3.org/2000/svg">
<rect opacity="0.17" x="415" y="98" width="549" height="522" rx="9" fill="#737373"/>
<rect opacity="0.17" y="360" width="342.259" height="325.549" rx="11" fill="#737373"/>
<rect x="2" y="362" width="338.259" height="321.549" rx="9" stroke="black" stroke-opacity="0.6" stroke-width="4"/>
<path d="M217.241 581.757H168.178M168.498 630.96H143.818H118.213M168.498 581.571V631.27V684.496M129.319 631.27V682.021M139.19 631.27V683.258M149.062 631.27V682.021M158.934 631.27V682.021M168.498 591.35H217.858M168.498 601.252H217.858M168.498 611.155H217.858M168.498 621.058H217.858M167.264 630.96H217.858" stroke="black" stroke-opacity="0.25"/>
<rect x="119.212" y="582.571" width="97.6451" height="99.5018" stroke="black" stroke-opacity="0.6" stroke-width="2"/>
<rect x="119.45" y="582.809" width="48.8942" height="47.6564" fill="black" fill-opacity="0.25"/>
<g opacity="0.42">
<path d="M314.721 642.167C315.255 641.996 316.099 642.173 317.244 642.81C318.36 643.43 319.645 644.42 320.994 645.656C323.69 648.125 326.578 651.513 328.789 654.687C329.894 656.273 330.824 657.796 331.475 659.115C332.136 660.453 332.476 661.515 332.476 662.203C332.476 665.215 330.515 668.018 327.183 670.094C323.858 672.165 319.233 673.463 314.099 673.463C308.964 673.463 304.34 672.165 301.015 670.094C297.683 668.018 295.722 665.215 295.722 662.203C295.722 661.878 295.798 661.683 295.894 661.559C295.99 661.434 296.147 661.328 296.406 661.256C296.954 661.105 297.8 661.152 298.913 661.344C300.009 661.533 301.273 661.846 302.631 662.163C303.979 662.479 305.409 662.797 306.798 662.986C309.529 663.356 312.321 663.257 314.002 661.378C315.68 659.502 316.057 656.069 314.583 650.32C313.853 647.47 313.612 645.466 313.72 644.138C313.828 642.8 314.265 642.314 314.721 642.167Z" stroke="black"/>
<path d="M230.304 609.567C231.582 604.032 233.753 598.731 236.475 595.037C239.211 591.324 242.391 589.368 245.711 590.134C249.031 590.901 251.032 594.053 251.863 598.59C252.69 603.104 252.318 608.819 251.04 614.354C249.762 619.889 247.592 625.189 244.869 628.884C242.133 632.597 238.954 634.553 235.633 633.786C232.313 633.019 230.313 629.868 229.481 625.331C228.654 620.817 229.026 615.102 230.304 609.567Z" stroke="black"/>
<rect x="264.157" y="616.73" width="30.5646" height="32.4213" rx="2.5" stroke="black"/>
<rect x="137.28" y="363.595" width="65.2238" height="32.4213" rx="2.5" stroke="black"/>
<path d="M205.575 371.143C206.556 371.193 207.336 372.004 207.336 372.997V386.613L207.334 386.709C207.286 387.658 206.524 388.42 205.575 388.468L205.479 388.47H202.385V387.851H205.479C206.163 387.851 206.717 387.297 206.717 386.613V372.997C206.717 372.314 206.163 371.759 205.479 371.759H202.385V371.14H205.479L205.575 371.143Z" fill="black"/>
<path d="M204.987 373.004C205.611 373.067 206.098 373.594 206.098 374.235V385.375C206.098 386.016 205.611 386.543 204.987 386.607L204.86 386.613H202.385V385.994H204.86C205.202 385.994 205.479 385.717 205.479 385.375V374.235C205.479 373.915 205.236 373.651 204.924 373.619L204.86 373.616H202.385V372.997H204.86L204.987 373.004Z" fill="black"/>
<path d="M134.209 388.468C133.228 388.418 132.448 387.607 132.448 386.613V372.997L132.45 372.902C132.498 371.952 133.259 371.191 134.209 371.143L134.304 371.14H137.399V371.759H134.304C133.621 371.759 133.067 372.314 133.067 372.997V386.613C133.067 387.297 133.621 387.851 134.304 387.851H137.399V388.47H134.304L134.209 388.468Z" fill="black"/>
<path d="M134.797 386.607C134.173 386.543 133.685 386.016 133.685 385.375V374.235C133.685 373.594 134.173 373.067 134.797 373.004L134.923 372.997H137.399V373.616H134.923C134.581 373.616 134.304 373.893 134.304 374.235V385.375C134.304 385.696 134.548 385.96 134.86 385.991L134.923 385.994H137.399V386.613H134.923L134.797 386.607Z" fill="black"/>
<rect x="163.393" y="395.897" width="12.3783" height="1.85674" rx="0.928371" fill="black"/>
<circle cx="195.267" cy="487.187" r="51.1793" stroke="black"/>
<rect x="1.1189" y="431.056" width="29.9457" height="141.35" rx="2.5" stroke="black"/>
<rect x="42.6798" y="376.469" width="24.9944" height="16.3296" rx="1.5" transform="rotate(129 42.6798 376.469)" stroke="black"/>
<rect x="42.6798" y="376.469" width="24.9944" height="16.3296" rx="1.5" transform="rotate(129 42.6798 376.469)" stroke="black"/>
<rect x="276.154" y="381.162" width="24.9944" height="16.3296" rx="1.5" transform="rotate(180 276.154 381.162)" stroke="black"/>
<rect x="276.154" y="381.162" width="24.9944" height="16.3296" rx="1.5" transform="rotate(180 276.154 381.162)" stroke="black"/>
<rect x="302.149" y="381.162" width="24.9944" height="16.3296" rx="1.5" transform="rotate(180 302.149 381.162)" stroke="black"/>
<rect x="302.149" y="381.162" width="24.9944" height="16.3296" rx="1.5" transform="rotate(180 302.149 381.162)" stroke="black"/>
<rect x="273.679" y="378.686" width="17.5674" height="11.3783" rx="1.5" transform="rotate(180 273.679 378.686)" stroke="black"/>
<rect x="273.679" y="378.686" width="17.5674" height="11.3783" rx="1.5" transform="rotate(180 273.679 378.686)" stroke="black"/>
<rect x="34.3696" y="377.558" width="15.1914" height="10.1551" rx="1.5" transform="rotate(109 34.3696 377.558)" stroke="black"/>
<rect x="34.3696" y="377.558" width="15.1914" height="10.1551" rx="1.5" transform="rotate(109 34.3696 377.558)" stroke="black"/>
<rect x="308.719" y="413.727" width="31.1835" height="86.2668" rx="2.5" stroke="black"/>
<rect x="290.771" y="450.242" width="11.9972" height="13.235" rx="1.5" stroke="black"/>
<line x1="289.533" y1="450.861" x2="289.533" y2="462.859" stroke="black" stroke-linecap="round"/>
<circle cx="31.2551" cy="661.72" r="11.5688" stroke="black"/>
<rect x="61.7725" y="642.106" width="47.8942" height="31.1835" rx="2.5" stroke="black"/>
</g>
<path d="M764.003 454.3H684.73M685.248 533.8H645.372H604M685.248 454V534.3V620.3M621.944 534.3V616.3M637.895 534.3V618.3M653.845 534.3V616.3M669.796 534.3V616.3M685.248 469.8H765M685.248 485.8H765M685.248 501.8H765M685.248 517.8H765M683.254 533.8H765" stroke="black" stroke-opacity="0.42"/>
<path d="M819 586.5H907M822 618H904C905.657 618 907 616.657 907 615V512C907 510.343 905.657 509 904 509H822C820.343 509 819 510.343 819 512V615C819 616.657 820.343 618 822 618ZM833 614H858C860.209 614 862 612.209 862 610V594C862 591.791 860.209 590 858 590H833C830.791 590 829 591.791 829 594V610C829 612.209 830.791 614 833 614ZM870 614H895C897.209 614 899 612.209 899 610V594C899 591.791 897.209 590 895 590H870C867.791 590 866 591.791 866 594V610C866 612.209 867.791 614 870 614Z" stroke="black" stroke-opacity="0.42"/>
<rect x="792.5" y="415.5" width="103" height="63" rx="1.5" stroke="black" stroke-opacity="0.42"/>
<rect x="779.5" y="588.5" width="26" height="26" rx="1.5" stroke="black" stroke-opacity="0.42"/>
<rect x="921.5" y="588.5" width="26" height="26" rx="1.5" stroke="black" stroke-opacity="0.42"/>
<circle cx="792" cy="606" r="4.5" stroke="black" stroke-opacity="0.42"/>
<circle cx="932" cy="601" r="4.5" stroke="black" stroke-opacity="0.42"/>
<rect x="931.5" y="380.5" width="33" height="90" rx="2.5" stroke="black" stroke-opacity="0.42"/>
<line x1="604" y1="354.5" x2="459" y2="354.5" stroke="black" stroke-opacity="0.42"/>
<line x1="459.5" y1="301" x2="459.5" y2="354" stroke="black" stroke-opacity="0.42"/>
<line x1="459" y1="301.5" x2="416" y2="301.5" stroke="black" stroke-opacity="0.42"/>
<rect x="416.5" y="235.5" width="27" height="55" stroke="black" stroke-opacity="0.42"/>
<mask id="path-40-inside-1_15_107" fill="white">
<path d="M582.002 363.003C587.548 363.146 592 367.746 592 373.4V376.6L591.997 376.869C591.858 382.399 587.46 386.857 582.002 386.997L581.737 387H579.368V386.2H581.737C586.969 386.2 591.211 381.902 591.211 376.6V373.4C591.211 368.098 586.969 363.8 581.737 363.8H572.263C567.031 363.8 562.789 368.098 562.789 373.4V376.6C562.789 381.902 567.031 386.2 572.263 386.2H576.211V387H572.263C566.684 387 562.144 382.488 562.003 376.869L562 376.6V373.4C562 367.656 566.595 363 572.263 363H581.737L582.002 363.003Z"/>
</mask>
<path d="M582.002 363.003L582.028 362.003L582.014 362.003L582.002 363.003ZM592 373.4H593H592ZM592 376.6L593 376.611V376.6H592ZM591.997 376.869L592.997 376.894L592.997 376.88L591.997 376.869ZM582.002 386.997L582.014 387.997L582.028 387.997L582.002 386.997ZM581.737 387V388L581.749 388L581.737 387ZM579.368 387H578.368V388H579.368V387ZM579.368 386.2V385.2H578.368V386.2H579.368ZM581.737 386.2V387.2V386.2ZM591.211 376.6H592.211H591.211ZM591.211 373.4H592.211H591.211ZM581.737 363.8V362.8V363.8ZM572.263 363.8V362.8V363.8ZM562.789 373.4H561.789H562.789ZM562.789 376.6H561.789H562.789ZM572.263 386.2V387.2V386.2ZM576.211 386.2H577.211V385.2H576.211V386.2ZM576.211 387V388H577.211V387H576.211ZM572.263 387V388V388V387ZM562.003 376.869L561.003 376.88L561.003 376.894L562.003 376.869ZM562 376.6H561L561 376.611L562 376.6ZM562 373.4H561H562ZM572.263 363V362V362V363ZM581.737 363L581.749 362H581.737V363ZM582.002 363.003L581.976 364.003C586.969 364.131 591 368.278 591 373.4H592H593C593 367.215 588.126 362.16 582.028 362.003L582.002 363.003ZM592 373.4H591V376.6H592H593V373.4H592ZM592 376.6L591 376.589L590.997 376.857L591.997 376.869L592.997 376.88L593 376.611L592 376.6ZM591.997 376.869L590.997 376.844C590.872 381.853 586.89 385.871 581.976 385.997L582.002 386.997L582.028 387.997C588.029 387.842 592.845 382.945 592.997 376.894L591.997 376.869ZM582.002 386.997L581.99 385.997L581.725 386L581.737 387L581.749 388L582.014 387.997L582.002 386.997ZM581.737 387V386H579.368V387V388H581.737V387ZM579.368 387H580.368V386.2H579.368H578.368V387H579.368ZM579.368 386.2V387.2H581.737V386.2V385.2H579.368V386.2ZM581.737 386.2V387.2C587.534 387.2 592.211 382.442 592.211 376.6H591.211H590.211C590.211 381.362 586.404 385.2 581.737 385.2V386.2ZM591.211 376.6H592.211V373.4H591.211H590.211V376.6H591.211ZM591.211 373.4H592.211C592.211 367.558 587.534 362.8 581.737 362.8V363.8V364.8C586.404 364.8 590.211 368.638 590.211 373.4H591.211ZM581.737 363.8V362.8H572.263V363.8V364.8H581.737V363.8ZM572.263 363.8V362.8C566.466 362.8 561.789 367.558 561.789 373.4H562.789H563.789C563.789 368.638 567.596 364.8 572.263 364.8V363.8ZM562.789 373.4H561.789V376.6H562.789H563.789V373.4H562.789ZM562.789 376.6H561.789C561.789 382.442 566.466 387.2 572.263 387.2V386.2V385.2C567.596 385.2 563.789 381.362 563.789 376.6H562.789ZM572.263 386.2V387.2H576.211V386.2V385.2H572.263V386.2ZM576.211 386.2H575.211V387H576.211H577.211V386.2H576.211ZM576.211 387V386H572.263V387V388H576.211V387ZM572.263 387V386C567.24 386 563.13 381.934 563.003 376.844L562.003 376.869L561.003 376.894C561.157 383.042 566.128 388 572.263 388V387ZM562.003 376.869L563.003 376.857L563 376.589L562 376.6L561 376.611L561.003 376.88L562.003 376.869ZM562 376.6H563V373.4H562H561V376.6H562ZM562 373.4H563C563 368.196 567.16 364 572.263 364V363V362C566.03 362 561 367.116 561 373.4H562ZM572.263 363V364H581.737V363V362H572.263V363ZM581.737 363L581.725 364L581.99 364.003L582.002 363.003L582.014 362.003L581.749 362L581.737 363Z" fill="black" fill-opacity="0.42" mask="url(#path-40-inside-1_15_107)"/>
<rect x="-0.5" y="0.5" width="3" height="14" rx="1.5" transform="matrix(-1 0 0 1 579 375)" stroke="black" stroke-opacity="0.42"/>
<rect x="468.5" y="360.5" width="57" height="32" rx="1.5" stroke="black" stroke-opacity="0.42"/>
<rect x="507.5" y="376.5" width="12" height="12" rx="6" stroke="black" stroke-opacity="0.42"/>
<rect x="475.5" y="376.5" width="12" height="12" rx="6" stroke="black" stroke-opacity="0.42"/>
<rect x="477.5" y="364.5" width="8" height="8" rx="4" stroke="black" stroke-opacity="0.42"/>
<rect x="509.5" y="364.5" width="8" height="8" rx="4" stroke="black" stroke-opacity="0.42"/>
<rect x="491.5" y="369.5" width="13" height="13" rx="6.5" stroke="black" stroke-opacity="0.42"/>
<line x1="531.5" y1="365.5" x2="558.5" y2="365.5" stroke="black" stroke-opacity="0.42" stroke-linecap="round"/>
<line x1="531.5" y1="369.5" x2="558.5" y2="369.5" stroke="black" stroke-opacity="0.42" stroke-linecap="round"/>
<line x1="531.5" y1="373.5" x2="558.5" y2="373.5" stroke="black" stroke-opacity="0.42" stroke-linecap="round"/>
<line x1="531.5" y1="377.5" x2="558.5" y2="377.5" stroke="black" stroke-opacity="0.42" stroke-linecap="round"/>
<line x1="531.5" y1="381.5" x2="558.5" y2="381.5" stroke="black" stroke-opacity="0.42" stroke-linecap="round"/>
<line x1="531.5" y1="385.5" x2="558.5" y2="385.5" stroke="black" stroke-opacity="0.42" stroke-linecap="round"/>
<rect x="491.5" y="295.5" width="79" height="32" rx="2.5" stroke="black" stroke-opacity="0.42"/>
<rect x="464.5" y="149.5" width="96" height="55" stroke="black" stroke-opacity="0.42"/>
<rect x="568.5" y="168.5" width="16" height="18" rx="1.5" stroke="black" stroke-opacity="0.42"/>
<rect x="443.5" y="168.5" width="16" height="18" rx="1.5" stroke="black" stroke-opacity="0.42"/>
<rect x="480.5" y="225.5" width="16" height="18" rx="1.5" transform="rotate(-90 480.5 225.5)" stroke="black" stroke-opacity="0.42"/>
<rect x="523.5" y="225.5" width="16" height="18" rx="1.5" transform="rotate(-90 523.5 225.5)" stroke="black" stroke-opacity="0.42"/>
<rect x="523.5" y="141.5" width="16" height="18" rx="1.5" transform="rotate(-90 523.5 141.5)" stroke="black" stroke-opacity="0.42"/>
<rect x="480.5" y="141.5" width="16" height="18" rx="1.5" transform="rotate(-90 480.5 141.5)" stroke="black" stroke-opacity="0.42"/>
<line x1="524.5" y1="227.5" x2="540.5" y2="227.5" stroke="black" stroke-opacity="0.42" stroke-linecap="round"/>
<line x1="586.5" y1="169.5" x2="586.5" y2="185.5" stroke="black" stroke-opacity="0.42" stroke-linecap="round"/>
<line x1="441.5" y1="169.5" x2="441.5" y2="185.5" stroke="black" stroke-opacity="0.42" stroke-linecap="round"/>
<line x1="524.5" y1="123.5" x2="540.5" y2="123.5" stroke="black" stroke-opacity="0.42" stroke-linecap="round"/>
<line x1="481.5" y1="123.5" x2="497.5" y2="123.5" stroke="black" stroke-opacity="0.42" stroke-linecap="round"/>
<line x1="481.5" y1="227.5" x2="497.5" y2="227.5" stroke="black" stroke-opacity="0.42" stroke-linecap="round"/>
<circle cx="863.5" cy="197.5" r="53" stroke="black" stroke-opacity="0.42"/>
<rect x="795.5" y="98.5" width="142" height="27" rx="1.5" stroke="black" stroke-opacity="0.42"/>
<rect x="917.5" y="265.5" width="34" height="52" rx="3.5" stroke="black" stroke-opacity="0.42"/>
<rect x="873.5" y="334.5" width="44" height="34" rx="3.5" stroke="black" stroke-opacity="0.42"/>
<rect x="917.5" y="317.5" width="34" height="51" rx="3.5" stroke="black" stroke-opacity="0.42"/>
<rect x="951.5" y="334.5" width="9" height="43" rx="1.5" stroke="black" stroke-opacity="0.42"/>
<rect x="910.5" y="377.5" width="9" height="41" rx="1.5" transform="rotate(-90 910.5 377.5)" stroke="black" stroke-opacity="0.42"/>
<rect x="879.5" y="377.5" width="9" height="31" rx="1.5" transform="rotate(-90 879.5 377.5)" stroke="black" stroke-opacity="0.42"/>
<rect x="951.5" y="300.5" width="9" height="34" rx="1.5" stroke="black" stroke-opacity="0.42"/>
<rect x="951.5" y="265.5" width="9" height="36" rx="1.5" stroke="black" stroke-opacity="0.42"/>
<rect x="923.5" y="255.5" width="37" height="10" rx="1.5" stroke="black" stroke-opacity="0.42"/>
<rect x="768.5" y="270.5" width="30" height="87" rx="4.5" stroke="black" stroke-opacity="0.42"/>
<line x1="785.5" y1="278.5" x2="785.5" y2="349.5" stroke="black" stroke-opacity="0.42" stroke-linecap="round"/>
<path d="M784 279C784 279 782 291.324 782 313.014C782 334.704 784 349 784 349" stroke="black" stroke-opacity="0.42" stroke-linecap="round"/>
<rect x="855.5" y="284.5" width="35" height="34" stroke="black" stroke-opacity="0.42"/>
<path d="M435.929 430.5V467.5H416.5V430.5H435.929Z" stroke="black" stroke-opacity="0.42"/>
<rect x="491.5" y="399.5" width="85" height="28" rx="2.5" stroke="black" stroke-opacity="0.42"/>
<rect x="501.5" y="476.5" width="49" height="13" rx="2.5" stroke="black" stroke-opacity="0.42" stroke-linecap="square"/>
<rect x="503.5" y="476.5" width="45" height="11" rx="1.5" stroke="black" stroke-opacity="0.42" stroke-linecap="square"/>
<rect x="0.5" y="-0.5" width="3" height="13" rx="1.5" transform="matrix(1 0 0 -1 546 613)" stroke="black" stroke-opacity="0.42" stroke-linecap="square"/>
<path opacity="0.42" d="M558 592C562.418 592 566 595.582 566 600C566 604.28 562.639 607.775 558.412 607.989L558 608H550V607H558C561.866 607 565 603.866 565 600C565 596.134 561.866 593 558 593H539C535.134 593 532 596.134 532 600C532 603.866 535.134 607 539 607H546V608H539L538.588 607.989C534.361 607.775 531 604.28 531 600C531 595.582 534.582 592 539 592H558Z" fill="black"/>
<rect x="0.5" y="-0.5" width="4" height="19" rx="2" transform="matrix(1 0 0 -1 449 502)" stroke="black" stroke-opacity="0.42" stroke-linecap="square"/>
<line x1="486.5" y1="479.5" x2="486.5" y2="619.5" stroke="black" stroke-opacity="0.42" stroke-linecap="square"/>
<path d="M454.5 490.663C470.027 492.323 482.269 506.758 482.495 524.5H482.328C482.102 506.832 469.926 492.496 454.5 490.831V490.663ZM448.5 490.831C433.074 492.496 420.898 506.832 420.672 524.5H420.505C420.731 506.757 432.973 492.322 448.5 490.662V490.831Z" stroke="black" stroke-opacity="0.42" stroke-linecap="square"/>
<path d="M451.5 614.5C434.577 614.5 420.746 599.373 420.506 580.5H420.673C420.913 599.297 434.685 614.333 451.5 614.333C468.315 614.333 482.087 599.297 482.327 580.5H482.494C482.254 599.373 468.423 614.5 451.5 614.5Z" stroke="black" stroke-opacity="0.42" stroke-linecap="square"/>
<line x1="482.5" y1="525.5" x2="482.5" y2="579.5" stroke="black" stroke-opacity="0.42" stroke-linecap="square"/>
<line x1="420.5" y1="525.5" x2="420.5" y2="579.5" stroke="black" stroke-opacity="0.42" stroke-linecap="square"/>
<rect x="495.5" y="506.5" width="40" height="70" rx="5.5" stroke="black" stroke-opacity="0.42" stroke-linecap="square"/>
<rect x="524.5" y="584.5" width="79" height="35" stroke="black" stroke-opacity="0.42" stroke-linecap="square"/>
<path d="M955 95.9053C960.983 95.9053 966 100.55 966 106.48V611.441C966 617.372 960.983 622.017 955 622.017H424C418.017 622.017 413 617.372 413 611.441V106.48C413 100.55 418.017 95.9053 424 95.9053H649V99.9053H424C420.042 99.9053 417 102.939 417 106.48V611.441C417 614.982 420.042 618.017 424 618.017H955C958.958 618.017 962 614.982 962 611.441V106.48C962 102.939 958.958 99.9053 955 99.9053H720V95.9053H955Z" fill="black" fill-opacity="0.6"/>
<path d="M766 618H762V443H766V618ZM766 398H762V205H766V398ZM766 161H762V100H766V161Z" fill="black" fill-opacity="0.6"/>
<path d="M606 618H602V529H606V618ZM606 486H602V469H606V486ZM606 426H602V282H606V426ZM606 238H602V100H606V238Z" fill="black" fill-opacity="0.6"/>
<line x1="766" y1="381" x2="962" y2="381" stroke="black" stroke-opacity="0.6" stroke-width="4"/>
<line x1="417" y1="400" x2="602" y2="400" stroke="black" stroke-opacity="0.6" stroke-width="4"/>
<line x1="417" y1="477" x2="602" y2="477" stroke="black" stroke-opacity="0.6" stroke-width="4"/>
<rect opacity="0.12" x="77" y="2" width="338" height="198" rx="9" fill="#737373"/>
<path d="M405 0C409.094 0 412.706 2.052 414.872 5.18164C413.695 6.82099 413 8.82911 413 11V12C413 7.58172 409.418 4 405 4H87C82.5817 4 79 7.58172 79 12V190C79 194.418 82.5817 198 87 198H282V202H87L86.6904 201.996C80.309 201.835 75.1655 196.691 75.0039 190.31L75 190V12C75 5.37258 80.3726 4.83193e-08 87 0H405ZM417 190C417 196.524 411.794 201.832 405.31 201.996L405 202H331V198H405C409.418 198 413 194.418 413 190V106.48C413 103.163 414.57 100.248 417 98.3232V190Z" fill="black" fill-opacity="0.6"/>
<g opacity="0.42">
<path d="M189.59 21.953C199.971 9.27666 220.575 15.5761 222.093 31.8899L222.367 34.8486L222.403 35.2332L222.785 35.2959L225.729 35.7773C241.701 38.3841 246.659 58.7031 234.022 68.3366L233.408 68.7869L230.975 70.4981L230.656 70.7213L230.795 71.0855L231.855 73.8654C237.693 89.1833 221.963 103.815 207.03 96.9378L204.321 95.6888L203.969 95.5271L203.725 95.8261L201.842 98.1271C191.461 110.803 170.857 104.504 169.34 88.1901L169.339 88.1898L169.063 85.229L169.027 84.8441L168.646 84.7817L165.704 84.303C149.478 81.6552 144.62 60.7281 158.025 51.2934L158.026 51.2925L160.458 49.5801L160.775 49.3565L160.637 48.9936L159.578 46.2149C153.74 30.8968 169.47 16.2644 184.403 23.1425L184.403 23.1428L187.11 24.3888L187.461 24.5502L187.706 24.2515L189.589 21.9527L189.59 21.953Z" stroke="black"/>
<path d="M132.099 128.888C142.395 124.584 152.772 134.733 148.923 145.028L148.729 145.519L147.927 147.439L147.778 147.795L148.085 148.029L149.747 149.294C158.801 156.184 154.97 170.547 143.716 171.957L141.649 172.214L141.264 172.263L141.215 172.649L140.957 174.716C139.547 185.969 125.185 189.801 118.295 180.747L117.03 179.084L116.796 178.776L116.439 178.926L114.519 179.729C104.059 184.102 93.5155 173.559 97.8881 163.099L98.6912 161.178L98.8404 160.821L98.5324 160.587L96.8717 159.324C87.8169 152.435 91.6489 138.071 102.903 136.662L102.903 136.662L104.969 136.403L105.355 136.354L105.403 135.968L105.662 133.903C107.071 122.649 121.434 118.817 128.324 127.872L129.588 129.532L129.822 129.839L130.179 129.691L132.099 128.888Z" stroke="black"/>
</g>
<path opacity="0.12" d="M955 3C959.971 3 964 7.02944 964 12V107C964 102.029 959.971 98 955 98H424C419.029 98 415 102.029 415 107V12C415 7.02944 419.029 3 424 3H955Z" fill="#737373"/>
<path opacity="0.06" d="M703.863 3C709.099 21.57 705.064 37.5352 701.526 50.9844C697.185 67.4859 693.571 80.5378 699.149 98H668.161C663.466 75.5461 668.791 57.5038 672.514 43.3525C676.723 27.349 678.827 16.7528 671.732 3H703.863Z" fill="#737373"/>
<path d="M417.007 156H417V106.48C417 106.394 417.003 106.308 417.007 106.223V156Z" fill="black" fill-opacity="0.6"/>
<path d="M962 106.48V156H961.993V106.223C961.997 106.308 962 106.394 962 106.48Z" fill="black" fill-opacity="0.6"/>
<path d="M417.007 98.3184C414.573 100.243 413 103.16 413 106.48V73H417.007V98.3184Z" fill="black" fill-opacity="0.6"/>
<path d="M955.981 1C961.514 1 966 5.47715 966 11V106.48C966 103.16 964.427 100.243 961.993 98.3184V11C961.993 7.68629 959.301 5 955.981 5H720V1H955.981Z" fill="black" fill-opacity="0.6"/>
<path d="M649 5H423.019C419.699 5 417.007 7.68629 417.007 11V24H413V11C413 5.47715 417.486 1 423.019 1H649V5Z" fill="black" fill-opacity="0.6"/>
<rect opacity="0.12" x="187" y="200" width="183" height="104" rx="9" fill="#737373"/>
<path d="M195 202C191.687 202 189 204.686 189 208V296C189 299.314 191.687 302 195 302H362C365.314 302 368 299.314 368 296V208C368 204.686 365.314 202 362 202H370.001C371.257 203.671 372 205.749 372 208V296L371.988 296.515C371.72 301.798 367.35 306 362 306H195L194.486 305.987C189.372 305.728 185.272 301.628 185.013 296.515L185 296V208C185 205.748 185.747 203.672 187.003 202H195Z" fill="black" fill-opacity="0.6"/>
<g opacity="0.42">
<rect x="-0.663683" y="0.0693277" width="28.1135" height="17.9627" rx="1.5" transform="matrix(-0.586304 0.810091 -0.741063 -0.671436 221.121 215.069)" stroke="black"/>
<rect x="-0.663683" y="0.0693277" width="28.1135" height="17.9627" rx="1.5" transform="matrix(-0.586304 0.810091 -0.741063 -0.671436 221.121 215.069)" stroke="black"/>
<rect x="221.5" y="296.5" width="27" height="20" rx="1.5" transform="rotate(180 221.5 296.5)" stroke="black"/>
<rect x="221.5" y="296.5" width="27" height="20" rx="1.5" transform="rotate(180 221.5 296.5)" stroke="black"/>
<rect x="248.5" y="296.5" width="26" height="20" rx="1.5" transform="rotate(180 248.5 296.5)" stroke="black"/>
<rect x="248.5" y="296.5" width="26" height="20" rx="1.5" transform="rotate(180 248.5 296.5)" stroke="black"/>
<rect x="218.5" y="293.5" width="18" height="14" rx="1.5" transform="rotate(180 218.5 293.5)" stroke="black"/>
<rect x="218.5" y="293.5" width="18" height="14" rx="1.5" transform="rotate(180 218.5 293.5)" stroke="black"/>
<rect x="-0.613638" y="0.298131" width="17.7003" height="10.794" rx="1.5" transform="matrix(-0.294132 0.955765 -0.933144 -0.359502 212.864 216.403)" stroke="black"/>
<rect x="-0.613638" y="0.298131" width="17.7003" height="10.794" rx="1.5" transform="matrix(-0.294132 0.955765 -0.933144 -0.359502 212.864 216.403)" stroke="black"/>
<rect x="365.5" y="238.5" width="40" height="25" rx="1.5" transform="rotate(90 365.5 238.5)" stroke="black"/>
<rect x="365.5" y="238.5" width="40" height="25" rx="1.5" transform="rotate(90 365.5 238.5)" stroke="black"/>
<rect x="363.5" y="243.5" width="27" height="18" rx="1.5" transform="rotate(90 363.5 243.5)" stroke="black"/>
<rect x="363.5" y="243.5" width="27" height="18" rx="1.5" transform="rotate(90 363.5 243.5)" stroke="black"/>
</g>
</svg>
