<svg width="932" height="527" viewBox="0 0 932 527" fill="none" xmlns="http://www.w3.org/2000/svg">
<rect opacity="0.17" x="379" y="0.0947266" width="553" height="524" rx="11" fill="#737373"/>
<rect opacity="0.17" y="200.095" width="342.259" height="325.549" rx="11" fill="#737373"/>
<rect x="2" y="202.095" width="338.259" height="321.549" rx="9" stroke="black" stroke-opacity="0.6" stroke-width="4"/>
<path d="M217.241 421.851H168.178M168.498 471.055H143.818H118.213M168.498 421.666V471.364V524.591M129.319 471.364V522.115M139.19 471.364V523.353M149.062 471.364V522.115M158.934 471.364V522.115M168.498 431.444H217.858M168.498 441.347H217.858M168.498 451.25H217.858M168.498 461.152H217.858M167.264 471.055H217.858" stroke="black" stroke-opacity="0.25"/>
<rect x="119.212" y="422.666" width="97.6451" height="99.5018" stroke="black" stroke-opacity="0.6" stroke-width="2"/>
<rect x="119.45" y="422.904" width="48.8942" height="47.6564" fill="black" fill-opacity="0.25"/>
<g opacity="0.35">
<path d="M314.721 482.262C315.255 482.09 316.099 482.268 317.244 482.905C318.36 483.524 319.645 484.514 320.994 485.75C323.69 488.219 326.578 491.608 328.789 494.782C329.894 496.368 330.824 497.891 331.475 499.209C332.136 500.548 332.476 501.61 332.476 502.298C332.476 505.31 330.515 508.113 327.183 510.189C323.858 512.26 319.233 513.558 314.099 513.558C308.964 513.558 304.34 512.26 301.015 510.189C297.683 508.113 295.722 505.31 295.722 502.298C295.722 501.972 295.798 501.777 295.894 501.654C295.99 501.529 296.147 501.422 296.406 501.351C296.954 501.2 297.8 501.246 298.913 501.439C300.009 501.628 301.273 501.94 302.631 502.258C303.979 502.573 305.409 502.892 306.798 503.08C309.529 503.45 312.321 503.352 314.002 501.473C315.68 499.597 316.057 496.163 314.583 490.414C313.853 487.565 313.612 485.561 313.72 484.233C313.828 482.895 314.265 482.408 314.721 482.262Z" stroke="black"/>
<path d="M230.304 449.662C231.582 444.127 233.753 438.826 236.475 435.132C239.211 431.419 242.391 429.463 245.711 430.229C249.031 430.996 251.032 434.148 251.863 438.684C252.69 443.198 252.318 448.914 251.04 454.449C249.762 459.984 247.592 465.284 244.869 468.978C242.133 472.691 238.954 474.647 235.633 473.881C232.313 473.114 230.313 469.962 229.481 465.426C228.654 460.912 229.026 455.197 230.304 449.662Z" stroke="black"/>
<rect x="264.157" y="456.825" width="30.5646" height="32.4213" rx="2.5" stroke="black"/>
<rect x="137.28" y="203.689" width="65.2238" height="32.4213" rx="2.5" stroke="black"/>
<path d="M205.575 211.238C206.556 211.287 207.336 212.099 207.336 213.092V226.708L207.334 226.804C207.286 227.753 206.524 228.514 205.575 228.562L205.479 228.565H202.385V227.946H205.479C206.163 227.946 206.717 227.392 206.717 226.708V213.092C206.717 212.408 206.163 211.854 205.479 211.854H202.385V211.235H205.479L205.575 211.238Z" fill="black"/>
<path d="M204.987 213.099C205.611 213.162 206.098 213.689 206.098 214.33V225.47C206.098 226.111 205.611 226.638 204.987 226.701L204.86 226.708H202.385V226.089H204.86C205.202 226.089 205.479 225.812 205.479 225.47V214.33C205.479 214.009 205.236 213.746 204.924 213.714L204.86 213.711H202.385V213.092H204.86L204.987 213.099Z" fill="black"/>
<path d="M134.209 228.562C133.228 228.513 132.448 227.701 132.448 226.708V213.092L132.45 212.996C132.498 212.047 133.259 211.286 134.209 211.238L134.304 211.235H137.399V211.854H134.304C133.621 211.854 133.067 212.408 133.067 213.092V226.708C133.067 227.392 133.621 227.946 134.304 227.946H137.399V228.565H134.304L134.209 228.562Z" fill="black"/>
<path d="M134.797 226.701C134.173 226.638 133.685 226.111 133.685 225.47V214.33C133.685 213.689 134.173 213.162 134.797 213.099L134.923 213.092H137.399V213.711H134.923C134.581 213.711 134.304 213.988 134.304 214.33V225.47C134.304 225.791 134.548 226.054 134.86 226.086L134.923 226.089H137.399V226.708H134.923L134.797 226.701Z" fill="black"/>
<rect x="163.393" y="235.992" width="12.3783" height="1.85674" rx="0.928371" fill="black"/>
<circle cx="195.267" cy="327.281" r="51.1793" stroke="black"/>
<rect x="1.1189" y="271.151" width="29.9457" height="141.35" rx="2.5" stroke="black"/>
<rect x="42.6798" y="216.564" width="24.9944" height="16.3296" rx="1.5" transform="rotate(129 42.6798 216.564)" stroke="black"/>
<rect x="42.6798" y="216.564" width="24.9944" height="16.3296" rx="1.5" transform="rotate(129 42.6798 216.564)" stroke="black"/>
<rect x="276.154" y="221.257" width="24.9944" height="16.3296" rx="1.5" transform="rotate(180 276.154 221.257)" stroke="black"/>
<rect x="276.154" y="221.257" width="24.9944" height="16.3296" rx="1.5" transform="rotate(180 276.154 221.257)" stroke="black"/>
<rect x="302.149" y="221.257" width="24.9944" height="16.3296" rx="1.5" transform="rotate(180 302.149 221.257)" stroke="black"/>
<rect x="302.149" y="221.257" width="24.9944" height="16.3296" rx="1.5" transform="rotate(180 302.149 221.257)" stroke="black"/>
<rect x="273.679" y="218.781" width="17.5674" height="11.3783" rx="1.5" transform="rotate(180 273.679 218.781)" stroke="black"/>
<rect x="273.679" y="218.781" width="17.5674" height="11.3783" rx="1.5" transform="rotate(180 273.679 218.781)" stroke="black"/>
<rect x="34.3696" y="217.653" width="15.1914" height="10.1551" rx="1.5" transform="rotate(109 34.3696 217.653)" stroke="black"/>
<rect x="34.3696" y="217.653" width="15.1914" height="10.1551" rx="1.5" transform="rotate(109 34.3696 217.653)" stroke="black"/>
<rect x="308.719" y="253.821" width="31.1835" height="86.2668" rx="2.5" stroke="black"/>
<rect x="290.771" y="290.337" width="11.9972" height="13.235" rx="1.5" stroke="black"/>
<line x1="289.533" y1="290.956" x2="289.533" y2="302.953" stroke="black" stroke-linecap="round"/>
<circle cx="31.2551" cy="501.815" r="11.5688" stroke="black"/>
<rect x="61.7725" y="482.2" width="47.8942" height="31.1835" rx="2.5" stroke="black"/>
</g>
<path d="M730.003 358.394H650.73M651.248 437.894H611.372H570M651.248 358.095V438.394V524.394M587.944 438.394V520.394M603.895 438.394V522.394M619.845 438.394V520.394M635.796 438.394V520.394M651.248 373.894H731M651.248 389.894H731M651.248 405.894H731M651.248 421.894H731M649.254 437.894H731" stroke="black" stroke-opacity="0.35"/>
<path d="M785 490.595H873M788 522.095H870C871.657 522.095 873 520.752 873 519.095V416.095C873 414.438 871.657 413.095 870 413.095H788C786.343 413.095 785 414.438 785 416.095V519.095C785 520.752 786.343 522.095 788 522.095ZM799 518.095H824C826.209 518.095 828 516.304 828 514.095V498.095C828 495.886 826.209 494.095 824 494.095H799C796.791 494.095 795 495.886 795 498.095V514.095C795 516.304 796.791 518.095 799 518.095ZM836 518.095H861C863.209 518.095 865 516.304 865 514.095V498.095C865 495.886 863.209 494.095 861 494.095H836C833.791 494.095 832 495.886 832 498.095V514.095C832 516.304 833.791 518.095 836 518.095Z" stroke="black" stroke-opacity="0.35"/>
<rect x="758.5" y="319.595" width="103" height="63" rx="1.5" stroke="black" stroke-opacity="0.35"/>
<rect x="745.5" y="492.595" width="26" height="26" rx="1.5" stroke="black" stroke-opacity="0.35"/>
<rect x="887.5" y="492.595" width="26" height="26" rx="1.5" stroke="black" stroke-opacity="0.35"/>
<circle cx="758" cy="510.095" r="4.5" stroke="black" stroke-opacity="0.35"/>
<circle cx="898" cy="505.095" r="4.5" stroke="black" stroke-opacity="0.35"/>
<rect x="897.5" y="284.595" width="33" height="90" rx="2.5" stroke="black" stroke-opacity="0.35"/>
<line x1="570" y1="258.595" x2="425" y2="258.595" stroke="black" stroke-opacity="0.35"/>
<line x1="425.5" y1="205.095" x2="425.5" y2="258.095" stroke="black" stroke-opacity="0.35"/>
<line x1="425" y1="205.595" x2="382" y2="205.595" stroke="black" stroke-opacity="0.35"/>
<rect x="382.5" y="139.595" width="27" height="55" stroke="black" stroke-opacity="0.35"/>
<mask id="path-40-inside-1_11_119" fill="white">
<path d="M548.002 267.098C553.548 267.24 558 271.841 558 277.495V280.695L557.997 280.963C557.858 286.494 553.46 290.951 548.002 291.092L547.737 291.095H545.368V290.295H547.737C552.969 290.295 557.211 285.997 557.211 280.695V277.495C557.211 272.193 552.969 267.895 547.737 267.895H538.263C533.031 267.895 528.789 272.193 528.789 277.495V280.695C528.789 285.997 533.031 290.295 538.263 290.295H542.211V291.095H538.263C532.684 291.095 528.144 286.583 528.003 280.963L528 280.695V277.495C528 271.751 532.595 267.095 538.263 267.095H547.737L548.002 267.098Z"/>
</mask>
<path d="M548.002 267.098L548.028 266.098L548.014 266.098L548.002 267.098ZM558 277.495H559H558ZM558 280.695L559 280.706V280.695H558ZM557.997 280.963L558.997 280.989L558.997 280.975L557.997 280.963ZM548.002 291.092L548.014 292.092L548.028 292.091L548.002 291.092ZM547.737 291.095V292.095L547.749 292.095L547.737 291.095ZM545.368 291.095H544.368V292.095H545.368V291.095ZM545.368 290.295V289.295H544.368V290.295H545.368ZM547.737 290.295V291.295V290.295ZM557.211 280.695H558.211H557.211ZM557.211 277.495H558.211H557.211ZM547.737 267.895V266.895V267.895ZM538.263 267.895V266.895V267.895ZM528.789 277.495H527.789H528.789ZM528.789 280.695H527.789H528.789ZM538.263 290.295V291.295V290.295ZM542.211 290.295H543.211V289.295H542.211V290.295ZM542.211 291.095V292.095H543.211V291.095H542.211ZM538.263 291.095V292.095V292.095V291.095ZM528.003 280.963L527.003 280.975L527.003 280.989L528.003 280.963ZM528 280.695H527L527 280.706L528 280.695ZM528 277.495H527H528ZM538.263 267.095V266.095V266.095V267.095ZM547.737 267.095L547.749 266.095H547.737V267.095ZM548.002 267.098L547.976 268.098C552.969 268.226 557 272.372 557 277.495H558H559C559 271.309 554.126 266.255 548.028 266.098L548.002 267.098ZM558 277.495H557V280.695H558H559V277.495H558ZM558 280.695L557 280.683L556.997 280.952L557.997 280.963L558.997 280.975L559 280.706L558 280.695ZM557.997 280.963L556.997 280.938C556.872 285.948 552.89 289.966 547.976 290.092L548.002 291.092L548.028 292.091C554.029 291.937 558.845 287.04 558.997 280.989L557.997 280.963ZM548.002 291.092L547.99 290.092L547.725 290.095L547.737 291.095L547.749 292.095L548.014 292.092L548.002 291.092ZM547.737 291.095V290.095H545.368V291.095V292.095H547.737V291.095ZM545.368 291.095H546.368V290.295H545.368H544.368V291.095H545.368ZM545.368 290.295V291.295H547.737V290.295V289.295H545.368V290.295ZM547.737 290.295V291.295C553.534 291.295 558.211 286.536 558.211 280.695H557.211H556.211C556.211 285.457 552.404 289.295 547.737 289.295V290.295ZM557.211 280.695H558.211V277.495H557.211H556.211V280.695H557.211ZM557.211 277.495H558.211C558.211 271.653 553.534 266.895 547.737 266.895V267.895V268.895C552.404 268.895 556.211 272.733 556.211 277.495H557.211ZM547.737 267.895V266.895H538.263V267.895V268.895H547.737V267.895ZM538.263 267.895V266.895C532.466 266.895 527.789 271.653 527.789 277.495H528.789H529.789C529.789 272.733 533.596 268.895 538.263 268.895V267.895ZM528.789 277.495H527.789V280.695H528.789H529.789V277.495H528.789ZM528.789 280.695H527.789C527.789 286.536 532.466 291.295 538.263 291.295V290.295V289.295C533.596 289.295 529.789 285.457 529.789 280.695H528.789ZM538.263 290.295V291.295H542.211V290.295V289.295H538.263V290.295ZM542.211 290.295H541.211V291.095H542.211H543.211V290.295H542.211ZM542.211 291.095V290.095H538.263V291.095V292.095H542.211V291.095ZM538.263 291.095V290.095C533.24 290.095 529.13 286.029 529.003 280.938L528.003 280.963L527.003 280.989C527.157 287.137 532.128 292.095 538.263 292.095V291.095ZM528.003 280.963L529.003 280.952L529 280.683L528 280.695L527 280.706L527.003 280.975L528.003 280.963ZM528 280.695H529V277.495H528H527V280.695H528ZM528 277.495H529C529 272.291 533.16 268.095 538.263 268.095V267.095V266.095C532.03 266.095 527 271.211 527 277.495H528ZM538.263 267.095V268.095H547.737V267.095V266.095H538.263V267.095ZM547.737 267.095L547.725 268.095L547.99 268.098L548.002 267.098L548.014 266.098L547.749 266.095L547.737 267.095Z" fill="black" fill-opacity="0.35" mask="url(#path-40-inside-1_11_119)"/>
<rect x="-0.5" y="0.5" width="3" height="14" rx="1.5" transform="matrix(-1 0 0 1 545 279.095)" stroke="black" stroke-opacity="0.35"/>
<rect x="434.5" y="264.595" width="57" height="32" rx="1.5" stroke="black" stroke-opacity="0.35"/>
<rect x="473.5" y="280.595" width="12" height="12" rx="6" stroke="black" stroke-opacity="0.35"/>
<rect x="441.5" y="280.595" width="12" height="12" rx="6" stroke="black" stroke-opacity="0.35"/>
<rect x="443.5" y="268.595" width="8" height="8" rx="4" stroke="black" stroke-opacity="0.35"/>
<rect x="475.5" y="268.595" width="8" height="8" rx="4" stroke="black" stroke-opacity="0.35"/>
<rect x="457.5" y="273.595" width="13" height="13" rx="6.5" stroke="black" stroke-opacity="0.35"/>
<line x1="497.5" y1="269.595" x2="524.5" y2="269.595" stroke="black" stroke-opacity="0.35" stroke-linecap="round"/>
<line x1="497.5" y1="273.595" x2="524.5" y2="273.595" stroke="black" stroke-opacity="0.35" stroke-linecap="round"/>
<line x1="497.5" y1="277.595" x2="524.5" y2="277.595" stroke="black" stroke-opacity="0.35" stroke-linecap="round"/>
<line x1="497.5" y1="281.595" x2="524.5" y2="281.595" stroke="black" stroke-opacity="0.35" stroke-linecap="round"/>
<line x1="497.5" y1="285.595" x2="524.5" y2="285.595" stroke="black" stroke-opacity="0.35" stroke-linecap="round"/>
<line x1="497.5" y1="289.595" x2="524.5" y2="289.595" stroke="black" stroke-opacity="0.35" stroke-linecap="round"/>
<rect x="457.5" y="199.595" width="79" height="32" rx="2.5" stroke="black" stroke-opacity="0.35"/>
<rect x="430.5" y="53.5947" width="96" height="55" stroke="black" stroke-opacity="0.35"/>
<rect x="534.5" y="72.5947" width="16" height="18" rx="1.5" stroke="black" stroke-opacity="0.35"/>
<rect x="409.5" y="72.5947" width="16" height="18" rx="1.5" stroke="black" stroke-opacity="0.35"/>
<rect x="446.5" y="129.595" width="16" height="18" rx="1.5" transform="rotate(-90 446.5 129.595)" stroke="black" stroke-opacity="0.35"/>
<rect x="489.5" y="129.595" width="16" height="18" rx="1.5" transform="rotate(-90 489.5 129.595)" stroke="black" stroke-opacity="0.35"/>
<rect x="489.5" y="45.5947" width="16" height="18" rx="1.5" transform="rotate(-90 489.5 45.5947)" stroke="black" stroke-opacity="0.35"/>
<rect x="446.5" y="45.5947" width="16" height="18" rx="1.5" transform="rotate(-90 446.5 45.5947)" stroke="black" stroke-opacity="0.35"/>
<line x1="490.5" y1="131.595" x2="506.5" y2="131.595" stroke="black" stroke-opacity="0.35" stroke-linecap="round"/>
<line x1="552.5" y1="73.5947" x2="552.5" y2="89.5947" stroke="black" stroke-opacity="0.35" stroke-linecap="round"/>
<line x1="407.5" y1="73.5947" x2="407.5" y2="89.5947" stroke="black" stroke-opacity="0.35" stroke-linecap="round"/>
<line x1="490.5" y1="27.5947" x2="506.5" y2="27.5947" stroke="black" stroke-opacity="0.35" stroke-linecap="round"/>
<line x1="447.5" y1="27.5947" x2="463.5" y2="27.5947" stroke="black" stroke-opacity="0.35" stroke-linecap="round"/>
<line x1="447.5" y1="131.595" x2="463.5" y2="131.595" stroke="black" stroke-opacity="0.35" stroke-linecap="round"/>
<circle cx="829.5" cy="101.595" r="53" stroke="black" stroke-opacity="0.35"/>
<rect x="761.5" y="2.59473" width="142" height="27" rx="1.5" stroke="black" stroke-opacity="0.35"/>
<rect x="883.5" y="169.595" width="34" height="52" rx="3.5" stroke="black" stroke-opacity="0.35"/>
<rect x="839.5" y="238.595" width="44" height="34" rx="3.5" stroke="black" stroke-opacity="0.35"/>
<rect x="883.5" y="221.595" width="34" height="51" rx="3.5" stroke="black" stroke-opacity="0.35"/>
<rect x="917.5" y="238.595" width="9" height="43" rx="1.5" stroke="black" stroke-opacity="0.35"/>
<rect x="876.5" y="281.595" width="9" height="41" rx="1.5" transform="rotate(-90 876.5 281.595)" stroke="black" stroke-opacity="0.35"/>
<rect x="845.5" y="281.595" width="9" height="31" rx="1.5" transform="rotate(-90 845.5 281.595)" stroke="black" stroke-opacity="0.35"/>
<rect x="917.5" y="204.595" width="9" height="34" rx="1.5" stroke="black" stroke-opacity="0.35"/>
<rect x="917.5" y="169.595" width="9" height="36" rx="1.5" stroke="black" stroke-opacity="0.35"/>
<rect x="889.5" y="159.595" width="37" height="10" rx="1.5" stroke="black" stroke-opacity="0.35"/>
<rect x="734.5" y="174.595" width="30" height="87" rx="4.5" stroke="black" stroke-opacity="0.35"/>
<line x1="751.5" y1="182.595" x2="751.5" y2="253.595" stroke="black" stroke-opacity="0.35" stroke-linecap="round"/>
<path d="M750 183.095C750 183.095 748 195.419 748 217.109C748 238.799 750 253.095 750 253.095" stroke="black" stroke-opacity="0.35" stroke-linecap="round"/>
<rect x="821.5" y="188.595" width="35" height="34" stroke="black" stroke-opacity="0.35"/>
<path d="M401.929 334.595V371.595H382.5V334.595H401.929Z" stroke="black" stroke-opacity="0.35"/>
<rect x="457.5" y="303.595" width="85" height="28" rx="2.5" stroke="black" stroke-opacity="0.35"/>
<rect x="467.5" y="380.595" width="49" height="13" rx="2.5" stroke="black" stroke-opacity="0.35" stroke-linecap="square"/>
<rect x="469.5" y="380.595" width="45" height="11" rx="1.5" stroke="black" stroke-opacity="0.35" stroke-linecap="square"/>
<rect x="0.5" y="-0.5" width="3" height="13" rx="1.5" transform="matrix(1 0 0 -1 512 517.095)" stroke="black" stroke-opacity="0.35" stroke-linecap="square"/>
<rect x="0.5" y="-0.5" width="4" height="19" rx="2" transform="matrix(1 0 0 -1 415 406.095)" stroke="black" stroke-opacity="0.35" stroke-linecap="square"/>
<path d="M502.911 513.522C502.847 513.514 502.783 513.508 502.72 513.498C502.783 513.508 502.847 513.514 502.911 513.522ZM525.279 513.498C525.216 513.508 525.152 513.514 525.088 513.522C525.152 513.514 525.216 513.508 525.279 513.498ZM502.521 513.464C502.45 513.451 502.379 513.439 502.309 513.425C502.379 513.439 502.45 513.451 502.521 513.464ZM525.69 513.425C525.62 513.439 525.549 513.451 525.478 513.464C525.549 513.451 525.62 513.439 525.69 513.425ZM502.108 513.38C502.041 513.364 501.973 513.35 501.905 513.333C501.973 513.35 502.041 513.364 502.108 513.38ZM526.094 513.333C526.026 513.35 525.959 513.364 525.891 513.38C525.959 513.364 526.026 513.35 526.094 513.333ZM501.666 513.268C501.616 513.253 501.565 513.24 501.516 513.225C501.565 513.24 501.616 513.253 501.666 513.268ZM526.483 513.225C526.434 513.24 526.383 513.253 526.333 513.268C526.383 513.253 526.434 513.24 526.483 513.225ZM501.297 513.153C501.236 513.133 501.175 513.113 501.114 513.091C501.175 513.113 501.236 513.133 501.297 513.153ZM526.885 513.091C526.824 513.113 526.763 513.133 526.702 513.153C526.763 513.133 526.824 513.113 526.885 513.091ZM500.938 513.024C500.868 512.997 500.799 512.97 500.729 512.941C500.799 512.97 500.868 512.997 500.938 513.024ZM527.27 512.941C527.2 512.97 527.131 512.997 527.061 513.024C527.131 512.997 527.2 512.97 527.27 512.941ZM500.546 512.861C500.487 512.835 500.429 512.81 500.371 512.782C500.429 512.81 500.487 512.835 500.546 512.861ZM527.628 512.782C527.57 512.809 527.512 512.835 527.454 512.861C527.512 512.835 527.57 512.809 527.628 512.782ZM500.16 512.678C500.107 512.651 500.054 512.624 500.002 512.596C500.054 512.624 500.107 512.651 500.16 512.678ZM527.997 512.596C527.945 512.624 527.892 512.651 527.839 512.678C527.892 512.651 527.945 512.624 527.997 512.596ZM499.836 512.504C499.772 512.468 499.708 512.431 499.645 512.394C499.708 512.431 499.772 512.468 499.836 512.504ZM528.354 512.394C528.291 512.431 528.227 512.468 528.163 512.504C528.227 512.468 528.291 512.431 528.354 512.394ZM499.486 512.296C499.423 512.256 499.359 512.215 499.297 512.174C499.359 512.215 499.423 512.256 499.486 512.296ZM528.702 512.174C528.64 512.215 528.576 512.256 528.513 512.296C528.576 512.256 528.64 512.215 528.702 512.174ZM499.165 512.084C499.102 512.04 499.039 511.996 498.978 511.951C499.039 511.996 499.102 512.04 499.165 512.084ZM529.021 511.951C528.96 511.996 528.897 512.04 528.834 512.084C528.897 512.04 528.96 511.996 529.021 511.951ZM498.801 511.816C498.757 511.782 498.713 511.749 498.67 511.714C498.713 511.749 498.757 511.782 498.801 511.816ZM529.329 511.714C529.286 511.749 529.242 511.782 529.198 511.816C529.242 511.782 529.286 511.749 529.329 511.714ZM498.501 511.574C498.449 511.53 498.398 511.485 498.347 511.439C498.398 511.485 498.449 511.53 498.501 511.574ZM529.652 511.439C529.601 511.485 529.55 511.53 529.498 511.574C529.55 511.53 529.601 511.485 529.652 511.439ZM498.22 511.324C498.164 511.272 498.108 511.22 498.053 511.166C498.108 511.22 498.164 511.272 498.22 511.324ZM529.946 511.166C529.892 511.22 529.836 511.272 529.779 511.324C529.836 511.272 529.891 511.22 529.946 511.166ZM497.919 511.031C497.869 510.98 497.82 510.929 497.771 510.877C497.82 510.929 497.869 510.98 497.919 511.031ZM530.228 510.877C530.179 510.929 530.13 510.98 530.08 511.031C530.13 510.98 530.179 510.929 530.228 510.877ZM497.652 510.745C497.604 510.691 497.557 510.636 497.51 510.581C497.557 510.636 497.604 510.691 497.652 510.745ZM530.489 510.581C530.442 510.636 530.395 510.691 530.347 510.745C530.395 510.691 530.442 510.636 530.489 510.581ZM497.378 510.422C497.342 510.377 497.307 510.332 497.272 510.287C497.307 510.332 497.342 510.377 497.378 510.422ZM530.727 510.287C530.692 510.332 530.657 510.377 530.621 510.422C530.657 510.377 530.692 510.332 530.727 510.287ZM497.138 510.108C497.095 510.05 497.053 509.991 497.012 509.932C497.053 509.991 497.095 510.05 497.138 510.108ZM530.987 509.932C530.946 509.991 530.904 510.05 530.861 510.108C530.904 510.05 530.946 509.991 530.987 509.932ZM496.914 509.788C496.869 509.72 496.825 509.651 496.782 509.582C496.825 509.651 496.869 509.72 496.914 509.788ZM531.218 509.582C531.175 509.651 531.13 509.72 531.085 509.788C531.13 509.72 531.175 509.651 531.218 509.582ZM496.696 509.442C496.657 509.377 496.619 509.31 496.582 509.243C496.619 509.31 496.657 509.377 496.696 509.442ZM531.418 509.243C531.38 509.31 531.342 509.377 531.303 509.442C531.342 509.377 531.38 509.31 531.418 509.243ZM496.497 509.091C496.466 509.032 496.436 508.973 496.406 508.913C496.436 508.973 496.466 509.032 496.497 509.091ZM531.593 508.913C531.563 508.973 531.533 509.032 531.502 509.091C531.533 509.032 531.563 508.973 531.593 508.913ZM496.312 508.725C496.28 508.657 496.25 508.588 496.22 508.52C496.25 508.588 496.28 508.657 496.312 508.725ZM531.779 508.52C531.749 508.588 531.719 508.657 531.687 508.725C531.719 508.657 531.749 508.588 531.779 508.52ZM496.151 508.361C496.124 508.296 496.099 508.23 496.073 508.164C496.099 508.23 496.124 508.296 496.151 508.361ZM531.926 508.164C531.9 508.23 531.875 508.296 531.848 508.361C531.875 508.296 531.9 508.23 531.926 508.164ZM495.996 507.961C495.979 507.914 495.964 507.867 495.948 507.82C495.964 507.867 495.979 507.914 495.996 507.961ZM532.051 507.82C532.035 507.867 532.02 507.914 532.003 507.961C532.02 507.914 532.035 507.867 532.051 507.82ZM495.867 507.572C495.85 507.514 495.835 507.456 495.818 507.397C495.835 507.456 495.85 507.514 495.867 507.572ZM532.182 507.397C532.165 507.456 532.149 507.514 532.132 507.572C532.149 507.514 532.165 507.456 532.182 507.397ZM495.758 507.178C495.731 507.07 495.706 506.962 495.684 506.854C495.706 506.962 495.731 507.07 495.758 507.178ZM532.316 506.854C532.293 506.962 532.268 507.07 532.241 507.178C532.268 507.07 532.293 506.962 532.316 506.854ZM495.669 506.787C495.65 506.691 495.633 506.594 495.617 506.497C495.633 506.594 495.65 506.691 495.669 506.787ZM532.383 506.497C532.367 506.594 532.349 506.691 532.33 506.787C532.349 506.691 532.367 506.594 532.383 506.497ZM495.595 506.366C495.581 506.277 495.571 506.188 495.561 506.098C495.571 506.188 495.581 506.277 495.595 506.366ZM532.438 506.098C532.428 506.188 532.418 506.277 532.404 506.366C532.418 506.277 532.428 506.188 532.438 506.098ZM495.543 505.954C495.536 505.887 495.533 505.82 495.527 505.752C495.533 505.82 495.536 505.887 495.543 505.954ZM532.472 505.752C532.467 505.82 532.463 505.887 532.456 505.954C532.463 505.887 532.467 505.82 532.472 505.752Z" stroke="black" stroke-opacity="0.35" stroke-linecap="square"/>
<line x1="452.5" y1="383.595" x2="452.5" y2="523.595" stroke="black" stroke-opacity="0.35" stroke-linecap="square"/>
<path d="M420.5 394.758C436.027 396.418 448.269 410.852 448.495 428.595H448.328C448.102 410.927 435.926 396.591 420.5 394.926V394.758ZM414.5 394.926C399.074 396.591 386.898 410.927 386.672 428.595H386.505C386.731 410.852 398.973 396.417 414.5 394.757V394.926Z" stroke="black" stroke-opacity="0.35" stroke-linecap="square"/>
<path d="M417.5 518.595C400.577 518.595 386.746 503.467 386.506 484.595H386.673C386.913 503.392 400.685 518.428 417.5 518.428C434.315 518.428 448.087 503.392 448.327 484.595H448.494C448.254 503.467 434.423 518.595 417.5 518.595Z" stroke="black" stroke-opacity="0.35" stroke-linecap="square"/>
<line x1="448.5" y1="429.595" x2="448.5" y2="483.595" stroke="black" stroke-opacity="0.35" stroke-linecap="square"/>
<line x1="386.5" y1="429.595" x2="386.5" y2="483.595" stroke="black" stroke-opacity="0.35" stroke-linecap="square"/>
<rect x="461.5" y="410.595" width="40" height="70" rx="5.5" stroke="black" stroke-opacity="0.35" stroke-linecap="square"/>
<rect x="490.5" y="488.595" width="79" height="35" stroke="black" stroke-opacity="0.35" stroke-linecap="square"/>
<path d="M921 0C926.983 0 932 4.64478 932 10.5752V515.536C932 521.466 926.983 526.111 921 526.111H390C384.017 526.111 379 521.466 379 515.536V10.5752C379 4.64478 384.017 0 390 0H615V4H390C386.042 4 383 7.03413 383 10.5752V515.536C383 519.077 386.042 522.111 390 522.111H921C924.958 522.111 928 519.077 928 515.536V10.5752C928 7.03413 924.958 4 921 4H686V0H921Z" fill="black" fill-opacity="0.6"/>
<path d="M732 522.095H728V347.095H732V522.095ZM732 302.095H728V109.095H732V302.095ZM732 65.0947H728V4.09473H732V65.0947Z" fill="black" fill-opacity="0.6"/>
<path d="M572 522.095H568V433.095H572V522.095ZM572 390.095H568V373.095H572V390.095ZM572 330.095H568V186.095H572V330.095ZM572 142.095H568V4.09473H572V142.095Z" fill="black" fill-opacity="0.6"/>
<line x1="732" y1="285.095" x2="928" y2="285.095" stroke="black" stroke-opacity="0.6" stroke-width="4"/>
<line x1="383" y1="304.095" x2="568" y2="304.095" stroke="black" stroke-opacity="0.6" stroke-width="4"/>
<line x1="383" y1="381.095" x2="568" y2="381.095" stroke="black" stroke-opacity="0.6" stroke-width="4"/>
</svg>
